<svg width="39" height="39" viewBox="0 0 39 39" fill="none" xmlns="http://www.w3.org/2000/svg">
<g filter="url(#filter0_d_1_26)">
<circle cx="19.5" cy="15.5" r="15.5" fill="#E9DCD0"/>
<path d="M29.012 11.4978C29.0122 11.4918 29.0156 11.4868 29.0156 11.4808V9.75702C29.0156 9.04412 28.4058 8.46418 27.6562 8.46418V7.50527C27.6562 6.62092 26.7463 5.99901 25.8672 6.2787L24.9609 6.56592C24.9607 6.56592 24.9607 6.56592 24.9607 6.56592C24.7135 6.6443 24.5056 6.78764 24.3473 6.96902C24.1283 6.8254 23.8637 6.7404 23.5781 6.7404H22.6719C22.3863 6.7404 22.1217 6.8254 21.9027 6.96907C21.7444 6.7877 21.5365 6.64435 21.2893 6.56597C21.2893 6.56597 21.2893 6.56597 21.2891 6.56597L20.383 6.27875C19.5023 5.99896 18.5938 6.62189 18.5938 7.50527V8.46418C18.4341 8.46418 18.2831 8.49532 18.1406 8.54358V7.17134C18.1406 6.45845 17.5308 5.87851 16.7812 5.87851H15.875C15.1254 5.87851 14.5156 6.45845 14.5156 7.17134V11.4808H13.5372L12.8089 7.34599C12.6744 6.49546 11.9204 5.87851 11.0163 5.87851H9.98438C9.4839 5.87851 9.07812 6.26442 9.07812 6.7404C9.07812 7.21638 9.4839 7.60229 9.98438 7.60229L11.019 7.61662L13.6218 22.3967C13.6948 22.8121 14.0727 23.1163 14.5156 23.1163H17.4076C17.027 23.4325 16.7812 23.8919 16.7812 24.4091C16.7812 25.3597 17.5943 26.1329 18.5938 26.1329C19.5932 26.1329 20.4062 25.3597 20.4062 24.4091C20.4062 23.8919 20.1605 23.4325 19.7799 23.1163H21.9389C21.5583 23.4325 21.3125 23.8919 21.3125 24.4091C21.3125 25.3597 22.1256 26.1329 23.125 26.1329C24.1244 26.1329 24.9375 25.3597 24.9375 24.4091C24.9375 23.8919 24.6917 23.4325 24.3111 23.1163H26.75C27.2505 23.1163 27.6562 22.7304 27.6562 22.2544C27.6562 21.7784 27.2505 21.3925 26.75 21.3925H15.2829L14.9793 19.6688H27.7106C28.1547 19.6688 28.5353 19.3628 28.6078 18.9491L29.7452 12.4849C29.8268 12.011 29.4876 11.5791 29.012 11.4978ZM18.5938 25.271C18.094 25.271 17.6875 24.8845 17.6875 24.4091C17.6875 23.9338 18.094 23.5473 18.5938 23.5473C19.0935 23.5473 19.5 23.9338 19.5 24.4091C19.5 24.8845 19.0935 25.271 18.5938 25.271ZM23.125 25.271C22.6252 25.271 22.2188 24.8845 22.2188 24.4091C22.2188 23.9338 22.6252 23.5473 23.125 23.5473C23.6248 23.5473 24.0312 23.9338 24.0312 24.4091C24.0312 24.8845 23.6248 25.271 23.125 25.271ZM24.9375 7.7925C24.9375 7.60671 25.0621 7.44236 25.2475 7.38364L26.1537 7.09641C26.4426 7.00338 26.75 7.20781 26.75 7.50527V8.46418H24.9375V8.03324V7.7925ZM24.3565 15.5502C24.556 15.7886 24.5158 16.1669 24.2647 16.4112C24.2642 16.4116 24.264 16.4118 24.2638 16.412L23.1358 17.514L22.0052 16.4129C21.7559 16.1675 21.7167 15.7886 21.9163 15.5499C22.1491 15.2713 22.5581 15.2586 22.8088 15.5043C22.8942 15.588 23.0115 15.6352 23.1341 15.6352C23.1345 15.6352 23.1347 15.6352 23.1352 15.6352C23.2582 15.6349 23.3757 15.5872 23.4609 15.5028C23.7046 15.261 24.1206 15.2723 24.3565 15.5502ZM22.2188 11.4808V9.32607H24.0312V11.4808H22.2188ZM22.6719 7.60229H23.5781C23.8279 7.60229 24.0312 7.79568 24.0312 8.03324V8.46418H22.2188V8.03324C22.2188 7.79568 22.4221 7.60229 22.6719 7.60229ZM19.5 7.50527C19.5 7.21094 19.8015 7.00349 20.0965 7.09641L21.0025 7.38364C21.1879 7.44236 21.3125 7.60671 21.3125 7.7925V8.03324V8.46418H19.5V7.50527ZM18.5938 9.32607H19.0469H21.3125V11.4808H18.1406V9.75702C18.1406 9.51946 18.344 9.32607 18.5938 9.32607ZM15.4219 11.4808V7.17134C15.4219 6.93379 15.6252 6.7404 15.875 6.7404H16.7812C17.031 6.7404 17.2344 6.93379 17.2344 7.17134V9.75702V11.4808H15.4219ZM19.6541 17.6476L17.8144 15.8764C17.1438 15.23 17.0259 14.1958 17.6105 13.4718C18.3128 12.6013 19.6223 12.5452 20.4062 13.2994C21.1902 12.5452 22.4997 12.6013 23.202 13.4718C23.4501 13.7772 23.5641 14.1384 23.5702 14.5021C23.4013 14.5381 23.2592 14.5925 23.1336 14.6618C22.8856 14.5248 22.6008 14.4572 22.3097 14.47C21.8807 14.4902 21.4789 14.6883 21.2069 15.0134C20.7217 15.5933 20.785 16.4524 21.3527 17.0111L21.5848 17.2371L21.1584 17.6476C20.7416 18.0441 20.0709 18.0441 19.6541 17.6476ZM24.9375 11.4808V9.32607H27.2031H27.6562C27.906 9.32607 28.1094 9.51946 28.1094 9.75702V11.4808H24.9375Z" fill="#4A3D31"/>
</g>
<defs>
<filter id="filter0_d_1_26" x="0" y="0" width="39" height="39" filterUnits="userSpaceOnUse" color-interpolation-filters="sRGB">
<feFlood flood-opacity="0" result="BackgroundImageFix"/>
<feColorMatrix in="SourceAlpha" type="matrix" values="0 0 0 0 0 0 0 0 0 0 0 0 0 0 0 0 0 0 127 0" result="hardAlpha"/>
<feOffset dy="4"/>
<feGaussianBlur stdDeviation="2"/>
<feComposite in2="hardAlpha" operator="out"/>
<feColorMatrix type="matrix" values="0 0 0 0 0 0 0 0 0 0 0 0 0 0 0 0 0 0 0.25 0"/>
<feBlend mode="normal" in2="BackgroundImageFix" result="effect1_dropShadow_1_26"/>
<feBlend mode="normal" in="SourceGraphic" in2="effect1_dropShadow_1_26" result="shape"/>
</filter>
</defs>
</svg>
