<svg width="92" height="35" viewBox="0 0 92 35" fill="none" xmlns="http://www.w3.org/2000/svg">
<ellipse cx="40" cy="16.5" rx="40" ry="14.5" fill="#E9DCD0"/>
<path d="M35.2784 23V21.7216L43.1193 10.017H35.1932V8.45455H45.2216V9.73295L37.3807 21.4375H45.3068V23H35.2784ZM52.608 23.2273C51.5568 23.2273 50.6501 22.9953 49.8878 22.5312C49.1302 22.0625 48.5455 21.4091 48.1335 20.571C47.7263 19.7282 47.5227 18.7481 47.5227 17.6307C47.5227 16.5133 47.7263 15.5284 48.1335 14.6761C48.5455 13.8191 49.1184 13.1515 49.8523 12.6733C50.5909 12.1903 51.4527 11.9489 52.4375 11.9489C53.0057 11.9489 53.5668 12.0436 54.1207 12.233C54.6747 12.4223 55.179 12.7301 55.6335 13.1562C56.0881 13.5777 56.4503 14.1364 56.7202 14.8324C56.9901 15.5284 57.125 16.3854 57.125 17.4034V18.1136H48.7159V16.6648H55.4205C55.4205 16.0492 55.2973 15.5 55.0511 15.017C54.8097 14.5341 54.464 14.1529 54.0142 13.8736C53.5691 13.5942 53.0436 13.4545 52.4375 13.4545C51.7699 13.4545 51.1922 13.6203 50.7045 13.9517C50.2216 14.2784 49.8499 14.7045 49.5895 15.2301C49.3291 15.7557 49.1989 16.3191 49.1989 16.9205V17.8864C49.1989 18.7102 49.3409 19.4086 49.625 19.9815C49.9138 20.5497 50.3139 20.983 50.8253 21.2812C51.3366 21.5748 51.9309 21.7216 52.608 21.7216C53.0483 21.7216 53.446 21.66 53.8011 21.5369C54.161 21.4091 54.4711 21.2197 54.7315 20.9688C54.992 20.7131 55.1932 20.3958 55.3352 20.017L56.9545 20.4716C56.7841 21.0208 56.4976 21.5038 56.0952 21.9205C55.6927 22.3324 55.1955 22.6544 54.6037 22.8864C54.0118 23.1136 53.3466 23.2273 52.608 23.2273ZM61.3509 16.4375V23H59.6747V12.0909H61.294V13.7955H61.4361C61.6918 13.2415 62.08 12.7964 62.6009 12.4602C63.1217 12.1193 63.794 11.9489 64.6179 11.9489C65.3565 11.9489 66.0028 12.1004 66.5568 12.4034C67.1108 12.7017 67.5417 13.1562 67.8494 13.767C68.1572 14.3731 68.3111 15.1402 68.3111 16.0682V23H66.6349V16.1818C66.6349 15.3248 66.4124 14.6572 65.9673 14.179C65.5223 13.696 64.9115 13.4545 64.1349 13.4545C63.5999 13.4545 63.1217 13.5705 62.7003 13.8026C62.2836 14.0346 61.9545 14.3731 61.7131 14.8182C61.4716 15.2633 61.3509 15.803 61.3509 16.4375Z" fill="#A3876E"/>
<g clip-path="url(#clip0_13_98)">
<path d="M26.8039 4.68464L26.8043 4.68499L26.813 4.68558L26.8039 4.68464Z" fill="black"/>
<path d="M12.2459 23.1257L12.2469 23.1267L12.3096 23.1831L12.3118 23.1841C13.01 23.7947 13.8283 24.2711 14.5406 24.6876C14.6877 24.7722 14.8756 24.876 15.1024 24.9321C15.1728 25.1519 15.2886 25.339 15.4332 25.4852C15.9333 25.9851 16.6758 26.0845 17.0996 26.1573C18.1686 26.3279 19.2747 26.3524 20.3875 26.233L20.4899 26.2214L20.489 26.2217C20.9709 26.1701 21.5382 26.1129 22.067 25.8981L22.0596 25.9016L22.1352 25.8702L22.2552 25.9221L22.2571 25.9228L22.2577 25.9234C22.6224 26.0769 23.0348 26.0752 23.4345 25.9373C25.6082 25.1906 27.3724 23.7425 28.4747 22.6625L28.4765 22.6607C29.8487 21.2869 30.8946 19.8272 31.5828 18.3188L31.5882 18.3071L31.6325 18.2115L31.6321 18.2124C31.7533 17.9485 31.9182 17.6058 31.9532 17.2292C31.977 16.9561 31.8886 16.7277 31.8319 16.5663C31.8159 16.5241 31.7982 16.4715 31.7914 16.446C31.93 16.1776 31.9958 15.8943 32.0424 15.6986C32.4561 13.9474 32.4647 12.1177 32.0618 10.5297C32.0009 10.2925 31.8976 9.96008 31.6259 9.68195C31.462 9.51488 31.2603 9.39065 31.0397 9.31261C30.9633 8.93486 30.7535 8.61739 30.574 8.33327C30.5325 8.26751 30.4932 8.20642 30.4595 8.14989L30.4176 8.07752L30.4173 8.07599C30.0175 7.40074 29.4619 6.453 28.7486 5.72466C28.2068 5.17238 27.5597 4.73358 26.8053 4.68504L26.8028 4.68497C26.0798 4.64515 25.3604 4.93346 24.8173 5.46564C24.6847 5.59573 24.5653 5.73808 24.4619 5.8906C24.0136 6.55029 23.9375 7.26239 23.8634 7.90376C23.848 8.03861 23.8313 8.17469 23.8132 8.31041C23.7897 8.47777 23.7364 8.67134 23.669 8.90379L23.6697 8.90317C23.5819 9.20737 23.4845 9.53748 23.474 9.89322C23.4733 9.94307 23.4781 9.98875 23.4837 10.0438L23.483 10.0591L23.4387 10.0917L23.4393 10.0911C23.3648 10.146 23.2804 10.208 23.2008 10.286C23.1327 10.3535 23.0838 10.4185 23.0452 10.4828L23.0431 10.4818C22.6558 11.0507 22.234 11.7041 22.0616 12.3069C22.0616 12.3069 22.0606 12.3072 22.0597 12.3075L22.0552 12.3251C22.0546 12.3257 22.0546 12.3257 22.0543 12.3266L22.0596 12.3075C22.0271 12.3224 21.9802 12.3412 21.9415 12.3559L21.938 12.3574C21.79 12.4175 21.586 12.4959 21.4053 12.6719L21.4016 12.6756L21.3998 12.6774C21.3101 12.7723 21.2329 12.8701 21.1379 12.9904L21.0523 13.0969C20.7788 13.4276 20.4892 13.742 20.1648 14.0603C19.7379 14.479 19.2491 14.9036 18.6748 15.356L18.6686 15.3608L18.593 15.4293L18.5906 15.4317L18.5868 15.4353C18.5215 15.4995 18.4602 15.5703 18.4065 15.6475C18.3224 15.7679 18.2583 15.9 18.2073 16.0479C18.1514 16.0636 18.0718 16.0899 17.9798 16.1393L17.99 16.1336L17.9804 16.1387C17.8326 16.2162 17.6763 16.2926 17.4934 16.3813L17.4943 16.381C17.0915 16.5763 16.6627 16.782 16.2814 17.0633L16.2792 17.0648L16.2783 17.0651C16.2406 17.0945 16.2035 17.1258 16.169 17.1597C16.0764 17.2505 16.0154 17.3425 15.9599 17.4253C15.8115 17.4184 15.6807 17.4356 15.5811 17.4489L15.5152 17.4593L15.5099 17.4601L15.5046 17.4609C14.895 17.5872 14.2739 17.7143 13.683 17.7436L13.6824 17.7442C12.777 17.7787 11.9349 18.1099 11.3613 18.6713C11.0948 18.9327 10.8883 19.2405 10.7505 19.5837C10.5028 20.1962 10.5389 20.7735 10.736 21.268C10.9318 21.7638 11.2726 22.1815 11.6262 22.542C11.8359 22.7558 12.0508 22.9502 12.2459 23.1257ZM23.815 8.30109L23.8137 8.30857C23.8134 8.3095 23.8134 8.3095 23.8134 8.3095L23.815 8.30109ZM24.8596 9.32779C24.929 8.94946 25.0079 8.57201 25.0683 8.19188C25.1592 7.45657 25.1462 6.6339 25.6985 6.08394C25.631 6.15086 25.5496 6.23075 25.7013 6.0806C25.7963 5.98744 25.7568 6.02618 25.7047 6.0779C26.9011 4.90745 28.1749 6.77356 28.8097 7.72431C29.0353 8.06161 29.2469 8.40813 29.4514 8.75849C29.5194 8.87343 29.7628 9.16356 29.7621 9.30353C29.7601 9.77523 28.7956 9.59785 28.4324 9.6225C27.3641 9.69454 26.2965 9.77594 25.2297 9.86679C24.7163 9.90966 24.7868 9.72254 24.8596 9.32779ZM23.2714 12.6692C23.1699 12.3817 23.7789 11.6083 23.9159 11.3605C24.181 10.8817 24.2278 10.8641 24.8061 10.8132C25.9673 10.7111 27.1302 10.6258 28.2945 10.5478C28.7579 10.5169 29.2234 10.4965 29.6858 10.4609C30.0164 10.4412 30.5935 10.2546 30.8256 10.5356C30.9222 10.6539 30.938 10.9858 30.9634 11.1216C31.0557 11.613 31.0991 12.1163 31.116 12.6136C31.1479 13.5827 31.0854 14.5973 30.8354 15.5259C30.6463 16.2289 29.9979 15.6173 29.4853 15.3896C28.3275 14.8768 27.1665 14.3707 26.0023 13.8737C25.4581 13.6409 24.9132 13.41 24.3675 13.1807C24.1048 13.0709 23.4113 12.924 23.2714 12.6692ZM20.029 18.2259C19.9054 17.9184 19.1298 16.5478 19.3787 16.3055C20.1242 15.7193 20.8506 15.1259 21.4809 14.4149C21.7143 14.1518 21.9886 13.6244 22.2903 13.4495C22.541 13.2016 23.3261 13.7195 23.5938 13.8319C24.9452 14.4039 26.293 14.9856 27.6366 15.5779C28.3234 15.8807 29.0089 16.186 29.6933 16.495C29.9047 16.5896 30.6764 16.7568 30.7648 17.0061C30.8217 17.169 30.6684 17.431 30.6155 17.5585C30.3619 18.171 30.0353 18.7524 29.681 19.3093C29.0155 20.3548 28.2123 21.3091 27.3012 22.1461C26.2889 23.0761 25.142 23.8589 23.8998 24.4596C23.4936 24.6563 22.9868 24.9687 22.5957 24.749C22.7754 24.4744 22.2528 23.5863 22.1153 23.2647C21.759 22.4264 21.4065 21.5871 21.058 20.7456C20.711 19.907 20.3678 19.0673 20.029 18.2259ZM16.8524 18.102C17.1078 17.9342 17.4018 17.7995 17.6774 17.6547C18.0081 17.481 18.5175 16.9775 18.7108 17.4694C19.1377 18.5599 19.5742 19.6465 20.0167 20.7306C20.4627 21.8244 20.9155 22.9153 21.3754 24.0036C21.4979 24.2938 21.76 24.5795 21.5516 24.7928C21.3836 24.9645 20.7612 24.9668 20.5445 24.9951C19.5592 25.1233 18.5528 25.1314 17.5565 25.003C17.0808 24.9413 16.1637 24.9874 16.2123 24.3521C16.2852 23.3998 16.3744 22.448 16.4602 21.4964C16.5114 20.9267 16.5645 20.3577 16.621 19.7885C16.6573 19.4257 16.5952 18.3543 16.8524 18.102ZM16.1989 24.5247C16.1975 24.5394 16.1947 24.5907 16.1989 24.5247V24.5247ZM11.5861 20.67C11.2252 19.2298 13.1118 19.0701 14.0188 18.962C14.3481 18.9226 14.6755 18.8714 15.0022 18.8145C15.1437 18.7897 15.4317 18.6737 15.5786 18.7086C15.7464 18.7477 15.8189 18.7031 15.7967 18.9285C15.7452 19.4177 15.696 19.9067 15.6482 20.3961C15.5606 21.2902 15.4793 22.1845 15.4051 23.08C15.3767 23.4224 15.4072 23.83 14.996 23.5885C13.8071 22.8898 12.1882 21.9871 11.5861 20.67Z" fill="#A3876E"/>
<path d="M25.7013 6.08058C25.7001 6.08183 25.6998 6.08277 25.6986 6.08395C25.7005 6.08215 25.7029 6.07972 25.7048 6.07791C25.7035 6.07913 25.7026 6.07937 25.7013 6.08058Z" fill="black"/>
</g>
<defs>
<clipPath id="clip0_13_98">
<rect width="24" height="25" fill="white" transform="translate(40.6398 17.847) rotate(135.551)"/>
</clipPath>
</defs>
</svg>
