<svg width="27" height="27" viewBox="0 0 27 27" fill="none" xmlns="http://www.w3.org/2000/svg">
<circle cx="13.5" cy="13.5" r="13.5" fill="#E6C09D"/>
<g clip-path="url(#clip0_14_297)">
<path fill-rule="evenodd" clip-rule="evenodd" d="M16.5624 9.49999C16.5624 7.84549 15.1889 6.49999 13.5 6.49999C11.8111 6.49999 10.4377 7.84549 10.4377 9.49999C10.4377 11.1545 11.8111 12.5 13.5 12.5C15.1889 12.5 16.5624 11.1545 16.5624 9.49999ZM19.4593 20H18.0935C17.6709 20 17.3279 19.664 17.3279 19.25C17.3279 18.836 17.6709 18.5 18.0935 18.5H18.422C18.9517 18.5 19.343 17.9772 19.1424 17.4965C18.2153 15.2735 16.0379 14 13.5 14C10.9621 14 8.78476 15.2735 7.85764 17.4965C7.65705 17.9772 8.04828 18.5 8.57807 18.5H8.90649C9.32909 18.5 9.67208 18.836 9.67208 19.25C9.67208 19.664 9.32909 20 8.90649 20H7.54068C6.5837 20 5.83036 19.1427 6.03324 18.227C6.59059 15.7077 8.33078 13.8485 10.6229 13.0047C9.57715 12.1805 8.90649 10.9175 8.90649 9.49999C8.90649 6.83674 11.2676 4.71423 14.0505 5.03148C16.067 5.26098 17.7375 6.8352 18.0399 8.80245C18.3002 10.4982 17.5921 12.047 16.3771 13.0047C18.6692 13.8485 20.4094 15.7077 20.9668 18.227C21.1697 19.1427 20.4163 20 19.4593 20ZM15.8894 16.598C16.1887 16.8912 16.1887 17.366 15.8894 17.6593L13.5 20L11.8762 18.4093C11.5769 18.116 11.5769 17.6412 11.8762 17.348C12.1748 17.0555 12.6594 17.0555 12.9588 17.348L13.5 17.879L14.8069 16.598C15.1062 16.3055 15.5908 16.3055 15.8894 16.598Z" fill="#4A3D31"/>
</g>
<defs>
<clipPath id="clip0_14_297">
<rect width="15" height="15" fill="white" transform="translate(6 5)"/>
</clipPath>
</defs>
</svg>
