<svg width="94" height="28" viewBox="0 0 94 28" fill="none" xmlns="http://www.w3.org/2000/svg">
<path d="M90.5185 27.9259H3.48148C1.53185 27.9259 0 26.3941 0 24.4445V3.55558C0 1.60595 1.53185 0.0740967 3.48148 0.0740967H90.5185C92.4681 0.0740967 94 1.60595 94 3.55558V24.4445C94 26.3941 92.4681 27.9259 90.5185 27.9259Z" fill="black"/>
<path d="M90.5185 0.631134C92.12 0.631134 93.443 1.9541 93.443 3.55558V24.4445C93.443 26.0459 92.12 27.3689 90.5185 27.3689H3.48148C1.88 27.3689 0.557037 26.0459 0.557037 24.4445V3.55558C0.557037 1.9541 1.88 0.631134 3.48148 0.631134H90.5185ZM90.5185 0.0740967H3.48148C1.53185 0.0740967 0 1.67558 0 3.55558V24.4445C0 26.3941 1.53185 27.9259 3.48148 27.9259H90.5185C92.4681 27.9259 94 26.3941 94 24.4445V3.55558C94 1.67558 92.4681 0.0740967 90.5185 0.0740967Z" fill="#A6A6A6"/>
<path d="M47.4178 15.2533C45.7467 15.2533 44.4237 16.5066 44.4237 18.2474C44.4237 19.9185 45.7467 21.2415 47.4178 21.2415C49.0889 21.2415 50.4119 19.9881 50.4119 18.2474C50.4119 16.437 49.0889 15.2533 47.4178 15.2533ZM47.4178 19.9881C46.5126 19.9881 45.7467 19.2222 45.7467 18.1777C45.7467 17.1333 46.5126 16.3674 47.4178 16.3674C48.323 16.3674 49.0889 17.0637 49.0889 18.1777C49.0889 19.2222 48.323 19.9881 47.4178 19.9881ZM40.9422 15.2533C39.2711 15.2533 37.9481 16.5066 37.9481 18.2474C37.9481 19.9185 39.2711 21.2415 40.9422 21.2415C42.6133 21.2415 43.9363 19.9881 43.9363 18.2474C43.9363 16.437 42.6133 15.2533 40.9422 15.2533ZM40.9422 19.9881C40.037 19.9881 39.2711 19.2222 39.2711 18.1777C39.2711 17.1333 40.037 16.3674 40.9422 16.3674C41.8474 16.3674 42.6133 17.0637 42.6133 18.1777C42.6133 19.2222 41.8474 19.9881 40.9422 19.9881ZM33.2133 16.1585V17.4118H36.2074C36.1378 18.1081 35.8593 18.6652 35.5111 19.0133C35.0933 19.4311 34.397 19.9185 33.2133 19.9185C31.3333 19.9185 29.9407 18.4563 29.9407 16.5763C29.9407 14.6963 31.403 13.234 33.2133 13.234C34.1881 13.234 34.9541 13.6518 35.5111 14.1392L36.4163 13.234C35.6504 12.5377 34.6756 11.9807 33.283 11.9807C30.7763 11.9807 28.6178 14.0696 28.6178 16.5763C28.6178 19.0829 30.7763 21.1718 33.283 21.1718C34.6756 21.1718 35.6504 20.754 36.4859 19.8489C37.3215 19.0133 37.6 17.8296 37.6 16.9244C37.6 16.6459 37.6 16.3674 37.5304 16.1585H33.2133ZM64.8252 17.1333C64.5467 16.437 63.8504 15.2533 62.3185 15.2533C60.7867 15.2533 59.5333 16.437 59.5333 18.2474C59.5333 19.9185 60.7867 21.2415 62.4578 21.2415C63.7807 21.2415 64.6163 20.4059 64.8948 19.9185L63.92 19.2222C63.5719 19.7096 63.1541 20.0577 62.4578 20.0577C61.7615 20.0577 61.3437 19.7792 60.9956 19.1526L64.9644 17.4815L64.8252 17.1333ZM60.7867 18.1081C60.7867 16.994 61.6919 16.3674 62.3185 16.3674C62.8059 16.3674 63.2933 16.6459 63.4326 16.994L60.7867 18.1081ZM57.5141 20.9629H58.837V12.2592H57.5141V20.9629ZM55.4252 15.88C55.077 15.5318 54.52 15.1837 53.8237 15.1837C52.3615 15.1837 50.9689 16.5066 50.9689 18.1777C50.9689 19.8489 52.2919 21.1022 53.8237 21.1022C54.52 21.1022 55.077 20.754 55.3556 20.4059H55.4252V20.8237C55.4252 21.9377 54.7985 22.5644 53.8237 22.5644C53.0578 22.5644 52.5007 22.0074 52.3615 21.52L51.2474 22.0074C51.5956 22.7733 52.4311 23.7481 53.8933 23.7481C55.4252 23.7481 56.6785 22.8429 56.6785 20.6844V15.3926H55.4252V15.88ZM53.8933 19.9881C52.9881 19.9881 52.2222 19.2222 52.2222 18.1777C52.2222 17.1333 52.9881 16.3674 53.8933 16.3674C54.7985 16.3674 55.4948 17.1333 55.4948 18.1777C55.4948 19.2222 54.7985 19.9881 53.8933 19.9881ZM70.883 12.2592H67.7496V20.9629H69.0726V17.6903H70.883C72.3452 17.6903 73.7378 16.6459 73.7378 14.9748C73.7378 13.3037 72.3452 12.2592 70.883 12.2592ZM70.9526 16.437H69.0726V13.4429H70.9526C71.9274 13.4429 72.4844 14.2785 72.4844 14.9052C72.4148 15.6711 71.8578 16.437 70.9526 16.437ZM78.96 15.1837C77.9852 15.1837 77.0104 15.6015 76.6622 16.5066L77.8459 16.994C78.1244 16.5066 78.5422 16.3674 79.0296 16.3674C79.7259 16.3674 80.3526 16.7852 80.4222 17.4815V17.5511C80.2133 17.4118 79.6563 17.2029 79.0993 17.2029C77.8459 17.2029 76.5926 17.8992 76.5926 19.1526C76.5926 20.3363 77.637 21.1022 78.7511 21.1022C79.6563 21.1022 80.0741 20.6844 80.4222 20.2666H80.4918V20.9629H81.7452V17.6207C81.6059 16.0889 80.4222 15.1837 78.96 15.1837ZM78.8207 19.9881C78.403 19.9881 77.7763 19.7792 77.7763 19.2222C77.7763 18.5259 78.5422 18.317 79.1689 18.317C79.7259 18.317 80.0044 18.4563 80.3526 18.5955C80.2133 19.4311 79.517 19.9881 78.8207 19.9881ZM86.1318 15.3926L84.6696 19.1526H84.6L83.0681 15.3926H81.6756L83.9733 20.6844L82.6504 23.6089H83.9733L87.5244 15.3926H86.1318ZM74.4341 20.9629H75.757V12.2592H74.4341V20.9629Z" fill="white"/>
<path d="M7.24148 5.29626C7.03259 5.50515 6.96296 5.8533 6.96296 6.27108V21.6592C6.96296 22.077 7.10222 22.4252 7.31111 22.634L7.38074 22.7037L16.0148 14.0696V13.9303L7.24148 5.29626Z" fill="url(#paint0_linear_13_143)"/>
<path d="M18.8 16.9942L15.9452 14.1394V13.9305L18.8 11.0757L18.8696 11.1453L22.2815 13.0949C23.2563 13.652 23.2563 14.5572 22.2815 15.1142L18.8 16.9942Z" fill="url(#paint1_linear_13_143)"/>
<path d="M18.8696 16.9244L15.9452 14L7.24148 22.7037C7.58963 23.0519 8.07704 23.0519 8.7037 22.7733L18.8696 16.9244Z" fill="url(#paint2_linear_13_143)"/>
<path d="M18.8696 11.0755L8.7037 5.29627C8.07704 4.94812 7.58963 5.01775 7.24148 5.3659L15.9452 14L18.8696 11.0755Z" fill="url(#paint3_linear_13_143)"/>
<path opacity="0.2" d="M18.8 16.8547L8.7037 22.5644C8.14667 22.9125 7.65926 22.8429 7.31111 22.5644L7.24148 22.634L7.31111 22.7036C7.65926 22.9821 8.14667 23.0518 8.7037 22.7036L18.8 16.8547Z" fill="black"/>
<path opacity="0.12" d="M7.24148 22.5644C7.03259 22.3556 6.96296 22.0074 6.96296 21.5896V21.6593C6.96296 22.077 7.10222 22.4252 7.31111 22.6341V22.5644H7.24148ZM22.2815 14.9052L18.8 16.8548L18.8696 16.9244L22.2815 14.9748C22.7689 14.6963 22.9778 14.3481 22.9778 14C22.9778 14.3481 22.6993 14.6267 22.2815 14.9052Z" fill="black"/>
<path opacity="0.25" d="M8.7037 5.36595L22.2815 13.0948C22.6993 13.3734 22.9778 13.6519 22.9778 14C22.9778 13.6519 22.7689 13.3037 22.2815 13.0252L8.7037 5.29632C7.72889 4.73928 6.96296 5.15706 6.96296 6.27113V6.34076C6.96296 5.29632 7.72889 4.80891 8.7037 5.36595Z" fill="white"/>
<path d="M32.1689 8.56891C31.7511 8.98669 31.2637 9.19558 30.637 9.19558C30.0104 9.19558 29.523 8.98669 29.1052 8.56891C28.6874 8.15113 28.4785 7.66373 28.4785 7.03706C28.4785 6.41039 28.6874 5.92298 29.1052 5.50521C29.523 5.08743 30.0104 4.87854 30.637 4.87854C31.2637 4.87854 31.7511 5.08743 32.1689 5.50521C32.5867 5.92298 32.7956 6.41039 32.7956 7.03706C32.7956 7.66373 32.5867 8.15113 32.1689 8.56891ZM29.523 8.22076C29.8015 8.49928 30.2193 8.70817 30.637 8.70817C31.0548 8.70817 31.4726 8.56891 31.7511 8.22076C32.0296 7.94224 32.2385 7.52447 32.2385 7.03706C32.2385 6.54965 32.0993 6.13187 31.7511 5.85335C31.4726 5.57484 31.0548 5.36595 30.637 5.36595C30.2193 5.36595 29.8015 5.50521 29.523 5.85335C29.2444 6.13187 29.0356 6.54965 29.0356 7.03706C29.0356 7.52447 29.1748 7.94224 29.523 8.22076ZM33.5615 9.12595V4.94817H34.1881L36.2074 8.22076V4.94817H36.7644V9.12595H36.2074L34.1185 5.7141V9.12595H33.5615ZM39.1319 9.12595H38.5748V5.43558H37.3911V4.94817H40.2459V5.43558H39.0622V9.12595H39.1319ZM41.0119 9.12595V4.94817H42.2652C42.8918 4.94817 43.4489 5.15706 43.797 5.50521C44.2148 5.92298 44.3541 6.41039 44.3541 7.03706C44.3541 7.66373 44.1452 8.15113 43.797 8.56891C43.3793 8.98669 42.8918 9.12595 42.2652 9.12595H41.0119ZM41.4993 8.63854H42.2652C42.7526 8.63854 43.1007 8.49928 43.3793 8.22076C43.6578 7.94224 43.797 7.52447 43.797 7.03706C43.797 6.54965 43.6578 6.13187 43.3793 5.85335C43.1007 5.57484 42.683 5.43558 42.2652 5.43558H41.4993V8.63854ZM47.557 5.43558H45.677V6.75854H47.4178V7.24595H45.677V8.56891H47.557V9.12595H45.12V4.94817H47.557V5.43558ZM51.5259 4.94817L49.9941 6.75854L51.6652 9.12595H51.0385L49.6459 7.17632L49.0193 7.94224V9.12595H48.4622V4.94817H49.0193V7.10669L50.8296 4.94817H51.5259ZM53.5452 9.12595V4.94817H54.1022V6.75854H56.1911V4.94817H56.7481V9.12595H56.1911V7.24595H54.1022V9.12595H53.5452ZM60.16 5.43558H58.28V6.75854H60.0207V7.24595H58.28V8.56891H60.16V9.12595H57.723V4.94817H60.16V5.43558ZM62.3881 9.12595H61.8311V5.43558H60.6474V4.94817H63.5022V5.43558H62.3185V9.12595H62.3881ZM69.003 8.56891C68.5852 8.98669 68.0978 9.19558 67.4711 9.19558C66.8444 9.19558 66.357 8.98669 65.9393 8.56891C65.5215 8.15113 65.3126 7.66373 65.3126 7.03706C65.3126 6.41039 65.5215 5.92298 65.9393 5.50521C66.357 5.08743 66.8444 4.87854 67.4711 4.87854C68.0978 4.87854 68.5852 5.08743 69.003 5.50521C69.4207 5.92298 69.6296 6.41039 69.6296 7.03706C69.6296 7.66373 69.4207 8.15113 69.003 8.56891ZM66.357 8.22076C66.6356 8.49928 67.0533 8.70817 67.4711 8.70817C67.8889 8.70817 68.3067 8.56891 68.5852 8.22076C68.8637 7.94224 69.0726 7.52447 69.0726 7.03706C69.0726 6.54965 68.9333 6.13187 68.5852 5.85335C68.3067 5.57484 67.8889 5.36595 67.4711 5.36595C67.0533 5.36595 66.6356 5.50521 66.357 5.85335C66.0785 6.13187 65.8696 6.54965 65.8696 7.03706C65.8696 7.52447 66.0089 7.94224 66.357 8.22076ZM70.883 9.12595H70.3259V4.94817H71.7185C72.0667 4.94817 72.3452 5.08743 72.6237 5.29632C72.9022 5.50521 73.0415 5.85335 73.0415 6.2015C73.0415 6.54965 72.9022 6.82817 72.6237 7.10669C72.3452 7.31558 72.0667 7.45484 71.7185 7.45484H70.8133V9.12595H70.883ZM70.883 6.8978H71.7881C71.997 6.8978 72.2059 6.82817 72.3452 6.68891C72.4844 6.54965 72.5541 6.34076 72.5541 6.2015C72.5541 6.06224 72.4844 5.85336 72.3452 5.7141C72.2059 5.57484 71.997 5.50521 71.7881 5.50521H70.883V6.8978Z" fill="white" stroke="white" stroke-width="0.0948148" stroke-miterlimit="10"/>
<defs>
<linearGradient id="paint0_linear_13_143" x1="15.1793" y1="6.13878" x2="3.49332" y2="17.824" gradientUnits="userSpaceOnUse">
<stop stop-color="#00A0FF"/>
<stop offset="0.007" stop-color="#00A1FF"/>
<stop offset="0.26" stop-color="#00BEFF"/>
<stop offset="0.512" stop-color="#00D2FF"/>
<stop offset="0.76" stop-color="#00DFFF"/>
<stop offset="1" stop-color="#00E3FF"/>
</linearGradient>
<linearGradient id="paint1_linear_13_143" x1="23.5585" y1="14.0008" x2="6.7102" y2="14.0008" gradientUnits="userSpaceOnUse">
<stop stop-color="#FFE000"/>
<stop offset="0.409" stop-color="#FFBD00"/>
<stop offset="0.775" stop-color="#FFA500"/>
<stop offset="1" stop-color="#FF9C00"/>
</linearGradient>
<linearGradient id="paint2_linear_13_143" x1="17.2869" y1="15.5987" x2="1.44064" y2="31.445" gradientUnits="userSpaceOnUse">
<stop stop-color="#FF3A44"/>
<stop offset="1" stop-color="#C31162"/>
</linearGradient>
<linearGradient id="paint3_linear_13_143" x1="5.08087" y1="0.196599" x2="12.1573" y2="7.27306" gradientUnits="userSpaceOnUse">
<stop stop-color="#32A071"/>
<stop offset="0.069" stop-color="#2DA771"/>
<stop offset="0.476" stop-color="#15CF74"/>
<stop offset="0.801" stop-color="#06E775"/>
<stop offset="1" stop-color="#00F076"/>
</linearGradient>
</defs>
</svg>
