<svg width="94" height="28" viewBox="0 0 94 28" fill="none" xmlns="http://www.w3.org/2000/svg">
<path d="M93.3765 24.6409C93.3765 26.1151 92.1824 27.3091 90.7054 27.3091H3.29457C1.81832 27.3091 0.620098 26.1151 0.620098 24.6409V3.36241C0.620098 1.88895 1.81837 0.690674 3.29457 0.690674H90.7047C92.1823 0.690674 93.3758 1.88895 93.3758 3.36241L93.3765 24.6409Z" fill="white"/>
<path d="M90.7054 27.9298H3.29456C1.47834 27.9298 0 26.4549 0 24.6408V3.36303C0 1.5475 1.47834 0.0705566 3.29456 0.0705566H90.7047C92.5188 0.0705566 93.9993 1.5475 93.9993 3.36303V24.6408C94.0006 26.4549 92.5202 27.9298 90.7054 27.9298Z" fill="#A6A6A6"/>
<path d="M93.3765 24.6409C93.3765 26.1151 92.1824 27.3091 90.7054 27.3091H3.29457C1.81832 27.3091 0.620098 26.1151 0.620098 24.6409V3.36241C0.620098 1.88895 1.81837 0.690674 3.29457 0.690674H90.7047C92.1823 0.690674 93.3758 1.88895 93.3758 3.36241L93.3765 24.6409Z" fill="black"/>
<path d="M20.9894 13.8536C20.9691 11.6082 22.8279 10.5159 22.9129 10.465C21.8602 8.93023 20.2286 8.72053 19.6553 8.70381C18.2849 8.5596 16.9557 9.52379 16.2576 9.52379C15.5456 9.52379 14.4706 8.71774 13.3121 8.74143C11.8212 8.76442 10.4265 9.6276 9.66151 10.968C8.08291 13.701 9.26023 17.7174 10.7728 19.9265C11.5293 21.0091 12.4134 22.2165 13.5705 22.174C14.7026 22.128 15.1255 21.4529 16.4917 21.4529C17.8453 21.4529 18.2424 22.174 19.4225 22.1468C20.6376 22.128 21.4025 21.06 22.1326 19.9683C23.007 18.7289 23.358 17.507 23.372 17.4443C23.3441 17.4345 21.013 16.5442 20.9894 13.8536ZM18.76 7.25055C19.3688 6.48909 19.7855 5.45313 19.6699 4.40186C18.7885 4.44087 17.6864 5.01144 17.0517 5.75619C16.4902 6.41245 15.9886 7.48812 16.1182 8.49968C17.1082 8.57353 18.1246 8.00017 18.76 7.25055Z" fill="white"/>
<path d="M90.7054 0.0705566H43.8855L62.2241 27.9298H90.7054C92.5196 27.9298 94 26.4549 94 24.6387V3.36303C94.0006 1.5475 92.5202 0.0705566 90.7054 0.0705566Z" fill="url(#paint0_linear_13_159)"/>
<path d="M37.3869 22.0186H35.8048L34.9381 19.2953H31.9257L31.1001 22.0186H29.5598L32.5451 12.7472H34.3885L37.3869 22.0186ZM34.6769 18.1527L33.8932 15.7318C33.8103 15.4845 33.6542 14.902 33.4257 13.9852H33.3978C33.3059 14.3795 33.1589 14.962 32.9575 15.7318L32.187 18.1527H34.6769ZM45.049 18.5937C45.049 19.7307 44.7404 20.6294 44.1224 21.2892C43.5693 21.8764 42.8816 22.1698 42.0616 22.1698C41.1761 22.1698 40.5394 21.8541 40.1527 21.2216V24.7294H38.6674V17.5306C38.6674 16.8164 38.6487 16.0843 38.6124 15.3333H39.9187L40.0016 16.3929H40.0294C40.5247 15.5945 41.2765 15.1953 42.2852 15.1953C43.0739 15.1953 43.7322 15.5067 44.2589 16.1302C44.7849 16.7552 45.049 17.5759 45.049 18.5937ZM43.5358 18.6481C43.5358 17.9974 43.3895 17.4609 43.0955 17.038C42.7743 16.5984 42.3431 16.3784 41.8024 16.3784C41.436 16.3784 41.103 16.5009 40.8055 16.7427C40.5073 16.9865 40.3123 17.3049 40.2211 17.6992C40.1751 17.8831 40.1521 18.0329 40.1521 18.1514V19.2667C40.1521 19.7523 40.3012 20.1627 40.5993 20.4985C40.8975 20.8329 41.2849 21.0007 41.7614 21.0007C42.3209 21.0007 42.7563 20.7841 43.0677 20.3542C43.3797 19.923 43.5358 19.3545 43.5358 18.6481ZM52.7381 18.5937C52.7381 19.7307 52.4295 20.6294 51.8115 21.2892C51.2577 21.8764 50.5708 22.1698 49.7501 22.1698C48.8646 22.1698 48.2279 21.8541 47.8412 21.2216V24.7294H46.3559V17.5306C46.3559 16.8164 46.3371 16.0843 46.3009 15.3333H47.6071L47.69 16.3929H47.7179C48.2125 15.5945 48.9642 15.1953 49.9737 15.1953C50.7616 15.1953 51.42 15.5067 51.9481 16.1302C52.4734 16.7552 52.7381 17.5759 52.7381 18.5937ZM51.2242 18.6481C51.2242 17.9974 51.0773 17.4609 50.7833 17.038C50.4621 16.5984 50.0322 16.3784 49.4916 16.3784C49.1252 16.3784 48.7922 16.5009 48.4933 16.7427C48.1951 16.9865 48.0008 17.3049 47.9095 17.6992C47.8642 17.8831 47.8398 18.0329 47.8398 18.1514V19.2667C47.8398 19.7523 47.9896 20.1627 48.2864 20.4985C48.5846 20.8322 48.9719 21.0007 49.4498 21.0007C50.0099 21.0007 50.4453 20.7841 50.7561 20.3542C51.0682 19.923 51.2242 19.3545 51.2242 18.6481ZM61.3351 19.4179C61.3351 20.2072 61.0592 20.8488 60.511 21.3442C59.9076 21.8848 59.0654 22.1558 57.9855 22.1558C56.9878 22.1558 56.188 21.9635 55.5847 21.5783L55.9282 20.3403C56.5796 20.7262 57.295 20.9185 58.0739 20.9185C58.6341 20.9185 59.0695 20.7917 59.3802 20.5402C59.6915 20.288 59.8491 19.9508 59.8491 19.53C59.8491 19.1532 59.7188 18.8375 59.4631 18.5805C59.206 18.3242 58.7811 18.0852 58.1841 17.8657C56.5608 17.2603 55.7484 16.3749 55.7484 15.21C55.7484 14.4493 56.0355 13.8264 56.6082 13.3395C57.1809 12.8532 57.9402 12.6101 58.8849 12.6101C59.7286 12.6101 60.4315 12.7571 60.9896 13.0504L60.6168 14.2612C60.0916 13.9769 59.4986 13.8348 58.8354 13.8348C58.3116 13.8348 57.9005 13.9637 57.6065 14.2201C57.3591 14.4493 57.2337 14.7287 57.2337 15.0602C57.2337 15.4261 57.3766 15.7298 57.6608 15.9681C57.9074 16.1875 58.3575 16.4265 59.0082 16.6829C59.8066 17.0047 60.3931 17.3795 60.7687 17.8101C61.147 18.2405 61.3351 18.7776 61.3351 19.4179ZM66.2585 16.448H64.6213V19.6938C64.6213 20.5193 64.9097 20.931 65.488 20.931C65.7533 20.931 65.9736 20.9087 66.1477 20.8621L66.1888 21.99C65.8962 22.0994 65.5109 22.1544 65.0337 22.1544C64.4471 22.1544 63.9887 21.9754 63.6578 21.6173C63.3282 21.2592 63.1625 20.6593 63.1625 19.815V16.4452H62.1871V15.3305H63.1625V14.1064L64.6213 13.6661V15.3305H66.2585V16.448ZM73.6306 18.6209C73.6306 19.6484 73.3367 20.4921 72.75 21.1519C72.1363 21.8311 71.3198 22.1697 70.3019 22.1697C69.3196 22.1697 68.5386 21.8444 67.9562 21.1944C67.3738 20.5429 67.0826 19.7223 67.0826 18.7323C67.0826 17.6963 67.3836 16.8478 67.9834 16.1881C68.5846 15.5277 69.3942 15.1975 70.412 15.1975C71.3929 15.1975 72.1809 15.5235 72.7772 16.1742C73.3471 16.8054 73.6306 17.6205 73.6306 18.6209ZM72.091 18.655C72.091 18.0426 71.9587 17.5173 71.6932 17.0777C71.3818 16.5468 70.9359 16.2815 70.3584 16.2815C69.7634 16.2815 69.3071 16.5468 68.9964 17.0777C68.7302 17.5173 68.5979 18.0516 68.5979 18.6828C68.5979 19.296 68.7302 19.8226 68.9964 20.2608C69.3175 20.7917 69.7655 21.0571 70.3458 21.0571C70.9136 21.0571 71.3588 20.7861 71.6806 20.2476C71.9538 19.7976 72.091 19.2688 72.091 18.655ZM78.4607 16.6395C78.3137 16.6123 78.1563 16.5984 77.9926 16.5984C77.47 16.5984 77.066 16.7949 76.7818 17.1906C76.5352 17.5389 76.4111 17.9792 76.4111 18.5108V22.0185H74.9258V17.4386C74.9258 16.6688 74.9112 15.9666 74.8826 15.334H76.1764L76.2307 16.613H76.2718C76.4293 16.1735 76.6759 15.8188 77.0145 15.5534C77.3454 15.3145 77.7027 15.1953 78.0881 15.1953C78.2252 15.1953 78.3493 15.205 78.4594 15.2225L78.4607 16.6395ZM85.1035 18.3596C85.1035 18.6258 85.086 18.85 85.0491 19.0333H80.5932C80.6099 19.6938 80.8259 20.1995 81.2397 20.5479C81.6153 20.8587 82.1008 21.0146 82.6971 21.0146C83.3569 21.0146 83.9587 20.9101 84.5001 20.6991L84.7328 21.7294C84.1002 22.0053 83.3534 22.1426 82.4916 22.1426C81.455 22.1426 80.6412 21.8374 80.0491 21.2285C79.4583 20.6189 79.1623 19.7997 79.1623 18.7735C79.1623 17.766 79.4375 16.9266 79.9885 16.2571C80.5654 15.5423 81.3449 15.1848 82.3259 15.1848C83.2894 15.1848 84.0187 15.5422 84.514 16.2571C84.9063 16.8235 85.1035 17.5257 85.1035 18.3596ZM83.6871 17.9744C83.6975 17.5334 83.6 17.1537 83.3987 16.8325C83.1415 16.4187 82.7459 16.2125 82.2157 16.2125C81.7301 16.2125 81.3344 16.4138 81.0335 16.8179C80.7862 17.1391 80.6392 17.525 80.5939 17.973L83.6871 17.9744Z" fill="white"/>
<path d="M33.9608 9.42885H33.1825L32.7569 8.09054H31.2764L30.8703 9.42885H30.113L31.5802 4.87191H32.4858L33.9608 9.42885ZM32.6287 7.52902L32.2434 6.33911C32.203 6.21719 32.1285 5.93364 32.0135 5.48081H31.9996C31.9522 5.67657 31.8846 5.96081 31.7829 6.33911L31.4046 7.52902H32.6287ZM37.6294 6.14334L36.3851 9.42885H35.6752L34.4714 6.14334H35.2558L35.8173 7.88084C35.9121 8.17136 35.9929 8.44863 36.0535 8.71197H36.0737C36.1281 8.4758 36.2089 8.19853 36.3099 7.88084L36.8644 6.14334H37.6294ZM40.2781 9.42885L40.2238 9.0505H40.2035C39.9806 9.35494 39.6559 9.50334 39.2436 9.50334C38.6555 9.50334 38.2361 9.09091 38.2361 8.53635C38.2361 7.72543 38.9391 7.30603 40.1562 7.30603V7.24542C40.1562 6.81279 39.9262 6.59612 39.4734 6.59612C39.1487 6.59612 38.8645 6.67763 38.6151 6.83996L38.4667 6.35995C38.7711 6.17045 39.1495 6.07571 39.596 6.07571C40.4543 6.07571 40.8876 6.52854 40.8876 7.43491V8.64504C40.8876 8.97665 40.9015 9.23372 40.935 9.42949L40.2781 9.42885ZM40.1764 7.79237C39.3648 7.79237 38.9593 7.98883 38.9593 8.4549C38.9593 8.79975 39.169 8.96835 39.4595 8.96835C39.8315 8.96835 40.1764 8.6848 40.1764 8.29954V7.79237ZM42.5138 5.60203C42.2706 5.60203 42.0811 5.41253 42.0811 5.16243C42.0811 4.91232 42.2769 4.72979 42.5277 4.72979C42.7778 4.72979 42.9805 4.91232 42.9736 5.16243C42.9736 5.42647 42.7848 5.60203 42.5138 5.60203ZM42.8927 9.42885H42.1626V6.14334H42.8927V9.42885ZM44.9201 9.42885H44.1899V4.63574H44.9201V9.42885ZM48.023 9.42885L47.9686 9.0505H47.9485C47.7256 9.35494 47.4009 9.50334 46.9885 9.50334C46.4005 9.50334 45.9811 9.09091 45.9811 8.53635C45.9811 7.72543 46.684 7.30603 47.9011 7.30603V7.24542C47.9011 6.81279 47.6712 6.59612 47.2183 6.59612C46.8937 6.59612 46.6094 6.67763 46.36 6.83996L46.211 6.35925C46.5154 6.16976 46.8937 6.07501 47.3403 6.07501C48.1986 6.07501 48.6319 6.52785 48.6319 7.43422V8.64434C48.6319 8.97595 48.6466 9.23303 48.6786 9.42879L48.023 9.42885ZM47.9213 7.79237C47.1097 7.79237 46.7042 7.98883 46.7042 8.4549C46.7042 8.79975 46.9139 8.96835 47.2044 8.96835C47.5764 8.96835 47.9213 8.6848 47.9213 8.29954V7.79237ZM51.5901 9.50339C51.124 9.50339 50.7798 9.30693 50.5568 8.92167H50.5422L50.5004 9.42885H49.8783C49.8985 9.16551 49.9054 8.86733 49.9054 8.54338V4.63574H50.6363V6.62405H50.6502C50.8668 6.25899 51.2173 6.07646 51.698 6.07646C52.4894 6.07646 53.044 6.75293 53.044 7.73942C53.044 8.75935 52.4281 9.50339 51.5901 9.50339ZM51.4416 6.64982C51.0215 6.64982 50.637 7.01488 50.637 7.52206V8.09681C50.637 8.54965 50.9825 8.92167 51.4291 8.92167C51.976 8.92167 52.3014 8.4758 52.3014 7.76589C52.3006 7.10336 51.962 6.64982 51.4416 6.64982ZM54.8532 9.42885H54.1239V4.63574H54.8532V9.42885ZM58.8278 7.96166H56.6361C56.6507 8.58379 57.0617 8.93491 57.6706 8.93491C57.9952 8.93491 58.2927 8.88057 58.556 8.77955L58.6696 9.28673C58.3589 9.42188 57.9938 9.48946 57.5681 9.48946C56.5399 9.48946 55.9317 8.84016 55.9317 7.83347C55.9317 6.82608 56.5545 6.0688 57.4859 6.0688C58.3241 6.0688 58.8521 6.69093 58.8521 7.63074C58.8549 7.75893 58.8486 7.87388 58.8278 7.96166ZM58.1582 7.44124C58.1582 6.93406 57.9011 6.57598 57.4344 6.57598C57.0149 6.57598 56.6848 6.94103 56.636 7.44124H58.1582ZM63.253 9.50339C62.293 9.50339 61.6709 8.78652 61.6709 7.81327C61.6709 6.79891 62.3062 6.07576 63.308 6.07576C64.2534 6.07576 64.8902 6.7585 64.8902 7.75962C64.8902 8.78652 64.2339 9.50339 63.253 9.50339ZM63.2809 6.60942C62.7535 6.60942 62.4157 7.10266 62.4157 7.79237C62.4157 8.46883 62.7605 8.96208 63.274 8.96208C63.7874 8.96208 64.1315 8.4347 64.1315 7.77843C64.1322 7.10963 63.7943 6.60942 63.2809 6.60942ZM68.8152 9.42885H68.0859V7.54226C68.0859 6.96124 67.8629 6.67003 67.4233 6.67003C66.9907 6.67003 66.6925 7.04205 66.6925 7.47468V9.42885H65.9631V7.08246C65.9631 6.79194 65.9554 6.48053 65.9359 6.14265H66.5783L66.6124 6.64982H66.6326C66.8276 6.2987 67.2276 6.07507 67.6734 6.07507C68.3624 6.07507 68.8153 6.60245 68.8153 7.46075L68.8152 9.42885ZM73.5923 6.69093H72.789V8.28631C72.789 8.69247 72.9305 8.8952 73.214 8.8952C73.3429 8.8952 73.4516 8.88126 73.5387 8.86106L73.5589 9.41561C73.4167 9.47001 73.2266 9.49712 72.9918 9.49712C72.4163 9.49712 72.0729 9.17944 72.0729 8.34761V6.69093H71.5936V6.14334H72.0729V5.54142L72.789 5.32475V6.14265H73.5923V6.69093ZM77.4589 9.42885H76.728V7.55619C76.728 6.9682 76.5051 6.67072 76.0656 6.67072C75.6872 6.67072 75.3361 6.92779 75.3361 7.44821V9.42885H74.6053V4.63574H75.3361V6.60942H75.3501C75.58 6.25133 75.9116 6.07507 76.3373 6.07507C77.0332 6.07507 77.4589 6.61569 77.4589 7.47468V9.42885ZM81.1896 7.96166H78.9986C79.0125 8.58379 79.4235 8.93491 80.0325 8.93491C80.3578 8.93491 80.6545 8.88057 80.9179 8.77955L81.0322 9.28673C80.7214 9.42188 80.3557 9.48946 79.9301 9.48946C78.9018 9.48946 78.2936 8.84016 78.2936 7.83347C78.2936 6.82608 78.9165 6.0688 79.8479 6.0688C80.686 6.0688 81.214 6.69093 81.214 7.63074C81.2167 7.75893 81.2097 7.87388 81.1896 7.96166ZM80.52 7.44124C80.52 6.93406 80.2636 6.57598 79.7969 6.57598C79.3768 6.57598 79.0466 6.94103 78.9985 7.44124H80.52Z" fill="white"/>
<defs>
<linearGradient id="paint0_linear_13_159" x1="68.9432" y1="28.0055" x2="68.9432" y2="2.89324" gradientUnits="userSpaceOnUse">
<stop stop-color="#1A1A1A" stop-opacity="0.1"/>
<stop offset="0.123" stop-color="#212121" stop-opacity="0.151"/>
<stop offset="0.308" stop-color="#353535" stop-opacity="0.227"/>
<stop offset="0.532" stop-color="#575757" stop-opacity="0.318"/>
<stop offset="0.783" stop-color="#858585" stop-opacity="0.421"/>
<stop offset="1" stop-color="#B3B3B3" stop-opacity="0.51"/>
</linearGradient>
</defs>
</svg>
