<svg width="1440" height="1575" viewBox="0 0 1440 1575" fill="none" xmlns="http://www.w3.org/2000/svg">
<path d="M1452.67 679L1271.86 670.5C1271.86 670.5 1197.14 661 1174.89 643C1152.65 625 1100.17 603 1100.17 603C925.922 615 937.291 379 778.479 365.5C619.666 352 267.166 315 300.166 0H944.744H1452.67V679Z" fill="#D9BEA6"/>
<path d="M-32 872L148.81 880.8C148.81 880.8 223.53 890.636 245.774 909.272C268.019 927.909 320.494 950.686 320.494 950.686C494.745 938.262 642.188 1051.63 642.188 1196.58C642.188 1341.53 1276 1216.77 1432 1575H475.922H-32V872Z" fill="#D9BEA6"/>
</svg>
