<svg width="43" height="43" viewBox="0 0 43 43" fill="none" xmlns="http://www.w3.org/2000/svg">
<path d="M24.6184 39.2556C24.3187 39.2019 23.5045 39.5688 23.4732 39.1527C23.5716 34.7686 23.6566 30.3845 23.7774 26.0004C23.8937 25.4993 27.0252 25.6828 27.6873 25.5396C28.676 25.3875 28.582 24.0723 28.8102 23.3207C28.8326 22.2023 29.7631 20.0282 28.0049 19.9253C27.3115 19.7419 24.4305 20.1624 24.3321 19.5271C23.5403 17.3933 25.8397 17.1248 27.3786 16.9504C28.9399 16.7938 28.4791 13.3312 28.7207 12.1368C28.8952 10.24 25.2716 10.7052 24.0369 10.5845C21.7285 10.6203 19.2412 11.5373 18.2659 13.7875C17.4205 15.4249 17.2863 17.2501 17.1073 19.0484C16.9731 19.4332 15.546 19.2363 15.1121 19.3392C13.0095 19.3348 13.931 23.3252 13.7611 24.7165C13.8416 26.2241 15.9084 25.7365 16.9373 25.7678C17.4831 26.0406 17.0894 28.4743 17.2057 29.1722C17.2281 29.1722 17.246 29.1722 17.2683 29.1722C17.152 32.3126 16.9955 35.4531 16.8076 38.5935C16.7628 38.8843 16.9239 39.5195 16.4273 39.3227C14.5216 39.1796 18.6104 38.7948 16.7628 38.0612V39.3316L23.5313 39.3764V38.7322C21.8538 38.9872 27.5665 39.0274 25.871 39.1796C25.446 39.2914 25.03 39.2198 24.6184 39.2556Z" fill="white"/>
<path d="M38.9338 23.7682C38.8264 20.0327 38.6519 16.2973 38.3924 12.5574C37.2964 3.91891 31.2258 3.0734 23.8176 3.79365C21.12 3.92338 18.3866 3.64155 15.6667 3.8876C13.3002 4.00838 10.7816 4.12022 8.70136 5.3952C6.44668 6.7149 5.27009 9.14404 4.8138 11.6358C4.40223 13.725 4.0533 15.8097 4.03093 17.948C3.85199 20.7351 3.9504 23.5266 4.19198 26.3136C4.38881 28.7428 4.62146 31.1898 5.52509 33.4758C6.4869 35.8021 8.39713 37.2381 10.6115 38.1149C12.4592 38.8486 14.517 39.1886 16.4227 39.3317C16.9193 39.5286 16.7627 38.8978 16.803 38.6025C16.9909 35.4621 17.1519 32.3261 17.2638 29.1812C17.2414 29.1812 17.2235 29.1812 17.2011 29.1812C17.0848 28.4789 17.4785 26.0497 16.9327 25.7768C15.8993 25.7455 13.837 26.2331 13.7565 24.7255C13.9265 23.3342 13.0005 19.3438 15.1075 19.3483C15.5414 19.2498 16.9685 19.4467 17.1027 19.0575C17.2816 17.2591 17.4203 15.4339 18.2614 13.7966C19.2366 11.5464 21.7239 10.6293 24.0323 10.5935C25.267 10.7098 28.8906 10.249 28.7161 12.1458C28.479 13.3403 28.9353 16.8028 27.374 16.9594C25.8351 17.1338 23.5357 17.4023 24.3276 19.5362C24.426 20.1714 27.3069 19.7509 28.0003 19.9343C29.7585 20.0372 28.828 22.2158 28.8056 23.3297C28.5774 24.0813 28.6758 25.3966 27.6827 25.5486C27.0206 25.6963 23.8891 25.5128 23.7728 26.0094C23.652 30.3935 23.5626 34.7776 23.4686 39.1617C23.4999 39.5778 24.3141 39.2065 24.6139 39.2646C25.0299 39.2288 25.4414 39.3004 25.8665 39.193C27.5619 39.041 29.329 39.0007 31.0066 38.7457C33.5163 38.361 35.8202 37.4886 37.3411 35.0102C39.3453 31.6596 39.0993 27.526 38.9338 23.7682Z" fill="black"/>
</svg>
