<svg width="43" height="43" viewBox="0 0 43 43" fill="none" xmlns="http://www.w3.org/2000/svg">
<path d="M26.8417 14.642C28.5864 14.557 28.8547 17.4156 26.9401 17.1651C25.3519 17.1204 25.1507 14.6867 26.8417 14.642Z" fill="white"/>
<path d="M32.5588 21.4508C32.6975 11.2197 28.5997 9.89552 19.2544 10.4637C12.8169 9.96709 10.2894 14.8433 10.2715 20.6097C9.92256 26.2554 11.6628 33.3907 18.6908 32.7913C27.4634 32.6347 32.9659 31.7444 32.5588 21.4508ZM17.2189 3.84278C27.2666 2.9078 38.8979 4.34829 39.0366 16.9235C39.39 22.7123 39.5779 28.9172 36.7416 34.1692C33.7219 39.3048 28.6892 39.0901 23.4551 39.2109C18.8518 39.3943 14.1053 39.7924 9.66756 38.2848C5.14476 36.7191 3.91453 33.3057 4.01295 28.8411C3.85637 24.9983 3.69979 21.1645 3.7669 17.3172C3.99058 8.20002 7.97206 3.63252 17.2189 3.84278Z" fill="black"/>
<path d="M19.2544 10.4637C28.5997 9.8956 32.693 11.2198 32.5588 21.4509C32.9659 31.7445 27.4634 32.6303 18.6952 32.7914C11.6627 33.3908 9.927 26.251 10.2759 20.6098C10.2894 14.8434 12.8169 9.96717 19.2544 10.4637ZM30.5904 21.773C30.5904 15.4384 29.812 12.0832 22.6185 12.4053C20.4801 12.6155 17.9794 12.2979 15.8321 13.0271C11.5196 15.1342 12.1146 20.9274 12.5127 24.9447C12.9019 31.4359 18.2836 31.2435 23.3209 30.5188C29.5078 30.1922 30.6486 27.5215 30.5904 21.773Z" fill="white"/>
<path d="M22.1803 17.617C17.6262 17.3844 16.2215 24.8866 21.2185 25.0879C25.9157 24.9761 26.636 18.9546 22.1803 17.617ZM21.2274 15.8947C29.092 15.3623 28.6088 26.9847 21.1917 26.9042C14.1637 26.6894 14.8213 16.521 21.2274 15.8947Z" fill="white"/>
<path d="M21.2229 25.088C16.2259 24.8822 17.6261 17.38 22.1847 17.6171C26.6359 18.9547 25.9157 24.9761 21.2229 25.088Z" fill="black"/>
<path d="M22.6186 12.4053C29.8121 12.0787 30.5949 15.4384 30.5905 21.7729C30.6442 27.5215 29.5079 30.1922 23.3209 30.5188C18.2837 31.2435 12.902 31.4359 12.5128 24.9447C12.1146 20.923 11.5241 15.1342 15.8321 13.0271C17.9795 12.2979 20.4802 12.6156 22.6186 12.4053ZM21.196 26.9041C28.6087 26.9847 29.0963 15.3623 21.2318 15.8947C14.8211 16.521 14.1635 26.6894 21.196 26.9041ZM26.94 17.1652C28.8547 17.4157 28.5863 14.5615 26.8416 14.6421C25.1506 14.6868 25.3519 17.1204 26.94 17.1652Z" fill="black"/>
</svg>
